#!OML:ASF X:\für Bonn\!DataBase\2005_08_10_Bjorn_Final\c3d\bjorn.ASF
:FULLY-SPECIFIED
:DEGREES
31
root 1.25985 17.665 3.13212 -171.619 -16.2572 182.838
lowerback 11.8588 -3.06406 7.64223
upperback 12.8106 -5.68346 -0.129678
thorax 6.4689 -3.07062 -4.11756
lowerneck -10.2742 -0.535859 -4.98602
upperneck -11.7112 -1.31645 3.04782
head -1.94936 -1.05079 1.8233
rclavicle 3.53837e-014 -2.62396e-014
rhumerus -27.2365 -20.9586 -78.3394
rradius 24.0497
rwrist 11.8219
rhand -14.668 19.8461
rfingers 7.12502
rthumb 11.4849 -9.81927
lclavicle 3.53837e-014 -2.62396e-014
lhumerus -21.5896 -13.5154 89.3096
lradius 39.8996
lwrist -10.6246
lhand -28.6982 -7.99685
lfingers 7.12502
lthumb -2.06027 21.973
rfemur -45.0191 -3.53311 22.59
rtibia 59.9812
rfoot -22.0195 9.19888
rtoes -13.3086
lfemur -0.748844 -4.67393 -12.8685
ltibia 59.542
lfoot -11.6786 2.9125
ltoes -34.2679
32
root 1.25742 17.685 3.07546 -172.082 -15.8909 182.998
lowerback 11.7616 -3.15782 7.54107
upperback 12.7383 -5.81145 -0.0766661
thorax 6.43423 -3.14494 -3.99797
lowerneck -10.4648 -0.2704 -4.96478
upperneck -11.5424 -0.982818 2.63284
head -1.87747 -0.878997 1.68442
rclavicle 3.93594e-014 -2.46493e-014
rhumerus -26.4772 -20.8546 -78.3227
rradius 24.2899
rwrist 10.44
rhand -14.6784 19.2889
rfingers 7.12502
rthumb 11.4749 -10.377
lclavicle 3.93594e-014 -2.46493e-014
lhumerus -20.9528 -11.6928 88.9142
lradius 37.5488
lwrist -10.351
lhand -27.0907 -7.23551
lfingers 7.12502
lthumb -0.507696 22.7436
rfemur -44.2263 -3.34592 22.7979
rtibia 59.7694
rfoot -22.1261 9.25432
rtoes -13.6977
lfemur -1.85853 -4.00865 -12.8309
ltibia 63.6063
lfoot -11.1046 1.60731
ltoes -35.1825
33
root 1.25611 17.7122 3.02136 -172.521 -15.5049 183.131
lowerback 11.5951 -3.21665 7.44319
upperback 12.6982 -5.9036 -0.0507138
thorax 6.47621 -3.19686 -3.92069
lowerneck -10.7877 -0.0434629 -5.02857
upperneck -11.3105 -0.682013 2.30479
head -1.76111 -0.723095 1.58807
rclavicle -8.34896e-015 2.66371e-014
rhumerus -25.666 -20.6111 -78.4621
rradius 24.7353
rwrist 8.95661
rhand -14.7731 18.6748
rfingers 7.12502
rthumb 11.3836 -10.9962
lclavicle -8.34896e-015 2.66371e-014
lhumerus -20.3087 -9.9264 88.4463
lradius 35.2467
lwrist -10.3517
lhand -25.6184 -6.43077
lfingers 7.12502
lthumb 0.914341 23.547
rfemur -43.3716 -3.12429 22.9754
rtibia 59.3972
rfoot -22.1627 9.26787
rtoes -14.0376
lfemur -3.15309 -3.25675 -12.7816
ltibia 67.8268
lfoot -10.542 0.493823
ltoes -36.4114
34
root 1.25579 17.7493 2.96778 -172.976 -15.0815 183.211
lowerback 11.4314 -3.22002 7.33948
upperback 12.6917 -5.92841 -0.0697646
thorax 6.55888 -3.21356 -3.89603
lowerneck -11.2809 0.123404 -5.11576
upperneck -10.9585 -0.443438 2.02432
head -1.57555 -0.59853 1.50954
rclavicle -5.84427e-014 2.42517e-014
rhumerus -24.8747 -20.0989 -78.7639
rradius 25.4179
rwrist 7.21317
rhand -14.9257 18.0944
rfingers 7.12502
rthumb 11.2364 -11.5847
lclavicle -5.84427e-014 2.42517e-014
lhumerus -19.7457 -8.39666 87.9315
lradius 33.0974
lwrist -10.5161
lhand -24.3534 -5.58867
lfingers 7.12502
lthumb 2.13602 24.3804
rfemur -42.3919 -2.83732 23.0783
rtibia 58.8756
rfoot -22.1591 9.30252
rtoes -14.0582
lfemur -4.57056 -2.41531 -12.7624
ltibia 72.1526
lfoot -9.82317 -0.448966
ltoes -37.5365
35
root 1.25724 17.7953 2.91541 -173.476 -14.6062 183.241
lowerback 11.3445 -3.18754 7.19636
upperback 12.6524 -5.88923 -0.129855
thorax 6.56702 -3.20082 -3.88864
lowerneck -11.6342 0.248563 -5.26931
upperneck -10.6093 -0.241491 1.82606
head -1.41327 -0.486942 1.47137
rclavicle 4.41302e-014 -3.65764e-014
rhumerus -24.2315 -19.2867 -79.1395
rradius 26.2778
rwrist 5.35879
rhand -15.1738 17.5436
rfingers 7.12502
rthumb 10.9971 -12.1484
lclavicle 4.41302e-014 -3.65764e-014
lhumerus -19.3748 -6.84772 87.3802
lradius 31.0802
lwrist -11.0317
lhand -23.3154 -4.88563
lfingers 7.12502
lthumb 3.13851 25.071
rfemur -41.271 -2.47903 23.1179
rtibia 58.2142
rfoot -22.1142 9.32348
rtoes -14.0086
lfemur -6.07941 -1.48747 -12.7694
ltibia 76.5561
lfoot -9.04065 -1.47412
ltoes -38.4295
36
root 1.25931 17.8485 2.86439 -173.967 -14.1057 183.218
lowerback 11.3006 -3.13172 6.99422
upperback 12.5428 -5.79524 -0.203419
thorax 6.4791 -3.1631 -3.85756
lowerneck -11.833 0.346049 -5.47823
upperneck -10.2196 -0.0553541 1.67358
head -1.26293 -0.375342 1.45899
rclavicle -1.39149e-014 3.18055e-015
rhumerus -23.7793 -18.1581 -79.5117
rradius 27.2684
rwrist 3.59649
rhand -15.5182 17.0309
rfingers 7.12502
rthumb 10.665 -12.6785
lclavicle -1.39149e-014 3.18055e-015
lhumerus -19.203 -4.99731 86.8421
lradius 29.1471
lwrist -12.1058
lhand -22.5596 -4.29297
lfingers 7.12502
lthumb 3.86836 25.6517
rfemur -40.0791 -2.09571 23.0952
rtibia 57.4274
rfoot -22.0121 9.37656
rtoes -13.6647
lfemur -7.75992 -0.497831 -12.7991
ltibia 81.0471
lfoot -8.3596 -2.62052
ltoes -39.1881
37
root 1.26376 17.9078 2.81396 -174.496 -13.5839 183.145
lowerback 11.3204 -3.04274 6.74327
upperback 12.4002 -5.64418 -0.307739
thorax 6.32475 -3.09951 -3.82824
lowerneck -11.882 0.405452 -5.70147
upperneck -9.82278 0.0898725 1.55473
head -1.13322 -0.279583 1.46032
rclavicle 2.62396e-014 -1.63003e-014
rhumerus -23.4879 -16.8353 -79.869
rradius 28.3776
rwrist 1.94851
rhand -15.8438 16.5995
rfingers 7.12502
rthumb 10.3508 -13.1258
lclavicle 2.62396e-014 -1.63003e-014
lhumerus -19.1044 -2.99605 86.2676
lradius 27.1977
lwrist -13.4895
lhand -22.2313 -3.93225
lfingers 7.12502
lthumb 4.18545 26.0064
rfemur -38.7665 -1.66108 23.0136
rtibia 56.5213
rfoot -21.8542 9.42306
rtoes -13.2182
lfemur -9.50285 0.549038 -12.8236
ltibia 85.5734
lfoot -7.7491 -3.92198
ltoes -39.5916
38
root 1.26854 17.9734 2.76432 -175.06 -13.0615 182.987
lowerback 11.3212 -2.91366 6.41008
upperback 12.3228 -5.46514 -0.438131
thorax 6.25983 -3.02771 -3.78994
lowerneck -11.9852 0.434701 -5.98273
upperneck -9.39289 0.208457 1.49342
head -0.984016 -0.197062 1.49061
rclavicle -3.69739e-014 7.95139e-015
rhumerus -23.1375 -15.3868 -80.2334
rradius 29.5437
rwrist 0.34438
rhand -16.1598 16.4478
rfingers 7.12502
rthumb 10.046 -13.2924
lclavicle -3.69739e-014 7.95139e-015
lhumerus -18.8188 -0.902672 85.6314
lradius 25.1495
lwrist -15.0251
lhand -22.3024 -3.87988
lfingers 7.12502
lthumb 4.11675 26.0601
rfemur -37.3459 -1.24414 22.8479
rtibia 55.508
rfoot -21.6597 9.47734
rtoes -12.6749
lfemur -11.2812 1.60274 -12.8864
ltibia 90.085
lfoot -7.15311 -5.28488
ltoes -38.9994
39
root 1.27413 18.0469 2.7148 -175.645 -12.5341 182.817
lowerback 11.2504 -2.72614 6.09607
upperback 12.3303 -5.23391 -0.596666
thorax 6.33192 -2.92704 -3.80778
lowerneck -12.126 0.417177 -6.27388
upperneck -8.99861 0.264728 1.48564
head -0.8382 -0.149192 1.53958
rclavicle 2.78299e-015 -1.74931e-014
rhumerus -22.7167 -13.9547 -80.5985
rradius 30.8082
rwrist -1.17042
rhand -16.4519 16.6044
rfingers 7.12502
rthumb 9.76419 -13.1493
lclavicle 2.78299e-015 -1.74931e-014
lhumerus -18.2398 1.3207 84.9182
lradius 22.8703
lwrist -16.9112
lhand -22.9544 -4.20576
lfingers 7.12502
lthumb 3.48713 25.7455
rfemur -35.8347 -0.805049 22.6824
rtibia 54.3944
rfoot -21.4283 9.47043
rtoes -12.2752
lfemur -13.1116 2.68976 -12.8887
ltibia 94.5427
lfoot -6.62397 -6.71027
ltoes -37.797
40
root 1.28009 18.1237 2.6677 -176.222 -12.016 182.634
lowerback 11.1859 -2.51067 5.79287
upperback 12.3131 -4.95622 -0.749371
thorax 6.37687 -2.80173 -3.82546
lowerneck -12.1959 0.343339 -6.71609
upperneck -8.60655 0.267778 1.56744
head -0.702849 -0.122468 1.64395
rclavicle 3.22031e-014 -3.06128e-014
rhumerus -22.4005 -12.5295 -80.859
rradius 32.2052
rwrist -2.5318
rhand -16.646 16.8233
rfingers 7.12502
rthumb 9.57695 -12.9391
lclavicle 3.22031e-014 -3.06128e-014
lhumerus -17.5856 3.93467 84.1511
lradius 20.4515
lwrist -19.4405
lhand -23.9855 -4.91539
lfingers 7.12502
lthumb 2.49135 25.0498
rfemur -34.3139 -0.373688 22.5107
rtibia 53.2198
rfoot -21.1428 9.48411
rtoes -11.7497
lfemur -15.0049 3.85003 -12.7845
ltibia 98.9254
lfoot -5.9997 -8.25777
ltoes -36.0549
41
root 1.28736 18.1977 2.62422 -176.805 -11.5244 182.433
lowerback 11.1993 -2.30486 5.47841
upperback 12.2073 -4.66163 -0.922416
thorax 6.27885 -2.66665 -3.84625
lowerneck -12.1224 0.259587 -7.23072
upperneck -8.15315 0.277893 1.73953
head -0.570626 -0.0844845 1.79209
rclavicle 3.85642e-014 -2.50469e-014
rhumerus -22.2796 -11.1253 -81.0428
rradius 33.6839
rwrist -3.67994
rhand -16.7237 16.9095
rfingers 7.12502
rthumb 9.50196 -12.8563
lclavicle 3.85642e-014 -2.50469e-014
lhumerus -17.0357 7.09355 83.2245
lradius 17.9851
lwrist -22.501
lhand -25.2742 -5.82659
lfingers 7.12502
lthumb 1.24673 24.1495
rfemur -32.7909 0.0339889 22.346
rtibia 52.0118
rfoot -20.8397 9.40396
rtoes -11.5025
lfemur -16.9679 5.10723 -12.5306
ltibia 103.243
lfoot -5.24296 -9.9033
ltoes -33.6797
42
root 1.29505 18.27 2.58402 -177.396 -11.0477 182.192
lowerback 11.2366 -2.09006 5.1681
upperback 12.097 -4.35076 -1.17093
thorax 6.15865 -2.51986 -3.9481
lowerneck -12.1368 0.154883 -7.56983
upperneck -7.52757 0.257047 1.84796
head -0.365625 -0.066372 1.88828
rclavicle 2.0276e-014 -7.15625e-015
rhumerus -22.1977 -9.86099 -81.2677
rradius 35.1932
rwrist -4.52295
rhand -16.6776 16.7322
rfingers 7.12502
rthumb 9.54641 -13.0315
lclavicle 2.0276e-014 -7.15625e-015
lhumerus -16.4755 11.0422 82.0093
lradius 15.5318
lwrist -26.4262
lhand -26.6684 -6.67605
lfingers 7.12502
lthumb -0.0997708 23.3037
rfemur -31.2547 0.407797 22.1501
rtibia 50.782
rfoot -20.4989 9.30757
rtoes -11.5029
lfemur -18.9232 6.43154 -12.1901
ltibia 107.436
lfoot -4.46098 -11.5885
ltoes -30.6763
43
root 1.30298 18.3441 2.54519 -178.011 -10.5764 181.881
lowerback 11.2904 -1.88871 4.7294
upperback 11.993 -4.07088 -1.44799
thorax 6.03653 -2.3984 -4.00577
lowerneck -12.2086 0.0826637 -7.82137
upperneck -6.76062 0.283577 1.93396
head -0.106706 -0.0268905 1.96486
rclavicle 7.15625e-015 1.11319e-014
rhumerus -22.1034 -8.50769 -81.5052
rradius 36.7097
rwrist -5.23631
rhand -16.5279 16.4869
rfingers 7.12502
rthumb 9.69088 -13.2701
lclavicle 7.15625e-015 1.11319e-014
lhumerus -15.9758 16.6189 80.3854
lradius 13.0491
lwrist -32.0111
lhand -28.1416 -7.39916
lfingers 7.12502
lthumb -1.52271 22.5752
rfemur -29.6776 0.731577 21.9033
rtibia 49.5221
rfoot -20.1533 9.15781
rtoes -11.7599
lfemur -20.9526 7.84281 -11.8207
ltibia 111.506
lfoot -3.82786 -13.238
ltoes -28.6557
